<svg version="1.1" id="Layer_1" xmlns="http://www.w3.org/2000/svg" xmlns:xlink="http://www.w3.org/1999/xlink" x="0px" y="0px"
	 width="100%" viewBox="0 0 512 512" enable-background="new 0 0 512 512" xml:space="preserve">
<path fill="#A5E887" opacity="1.000000" stroke="none" 
	d="
M116.000000,513.000000 
	C116.000000,513.000000 115.500000,513.000000 115.202629,512.533203 
	C114.888031,467.091003 114.756699,422.115173 114.947281,377.140717 
	C114.986656,367.849060 115.563904,358.458038 117.014328,349.290192 
	C128.374924,277.482422 166.479340,224.475922 230.123352,189.669037 
	C250.788712,178.367157 273.453217,172.851822 296.027405,166.998154 
	C311.466797,162.994629 326.726135,158.296570 342.426941,153.810440 
	C349.688965,151.532242 356.638336,149.493622 363.482208,147.147232 
	C386.388489,139.293900 409.285858,131.412170 432.126862,123.371613 
	C442.136139,119.848122 452.001007,115.914330 461.868652,112.512840 
	C445.199829,151.508850 425.350677,188.426056 402.508118,223.739258 
	C360.756073,288.285278 311.088593,346.203339 255.555008,399.211334 
	C213.049805,439.783478 167.891800,477.087646 119.227959,510.087036 
	C118.039856,510.892700 117.071060,512.021729 116.000000,513.000000 
z"/>
<path fill="#000000" opacity="1.000000" stroke="none" 
	d="
M461.931427,112.166840 
	C452.001007,115.914330 442.136139,119.848122 432.126862,123.371613 
	C409.285858,131.412170 386.388489,139.293900 363.482208,147.147232 
	C356.638336,149.493622 349.688965,151.532242 342.383575,153.433197 
	C334.643219,130.692413 325.269379,109.140274 313.858856,88.423584 
	C300.139313,63.514709 283.814972,40.407787 266.509918,17.921612 
	C262.356598,12.524779 258.820160,6.653229 255.000000,1.000000 
	C340.964630,1.000000 426.929230,1.000000 512.946899,1.000000 
	C512.946899,171.561066 512.946899,342.122131 512.946899,513.000000 
	C415.312653,513.000000 317.625000,513.000000 219.309387,512.586365 
	C219.360397,511.791656 220.004761,511.167603 220.723389,511.065338 
	C235.156830,509.010681 249.650848,507.329193 264.027527,504.939819 
	C288.789124,500.824524 312.594849,493.220154 335.358154,482.792297 
	C367.419647,468.105011 395.606415,448.037048 418.663818,420.980194 
	C430.092560,407.569061 439.890869,393.160583 448.040344,377.625458 
	C458.873840,356.973755 466.342773,335.114410 471.427765,312.333740 
	C475.734802,293.038330 478.490021,273.566345 478.865021,253.862228 
	C479.184082,237.099274 478.629944,220.300766 477.881989,203.543884 
	C477.465363,194.209915 476.226471,184.869339 474.711395,175.637878 
	C472.437286,161.781723 469.691803,147.999603 466.955505,134.223984 
	C465.486938,126.830658 463.619110,119.516632 461.931427,112.166840 
z"/>
<path fill="#00AA95" opacity="1.000000" stroke="none" 
	d="
M254.600006,1.000000 
	C258.820160,6.653229 262.356598,12.524779 266.509918,17.921612 
	C283.814972,40.407787 300.139313,63.514709 313.858856,88.423584 
	C325.269379,109.140274 334.643219,130.692413 342.022583,153.531769 
	C326.726135,158.296570 311.466797,162.994629 296.027405,166.998154 
	C273.453217,172.851822 250.788712,178.367157 230.123352,189.669037 
	C166.479340,224.475922 128.374924,277.482422 117.014328,349.290192 
	C115.563904,358.458038 114.986656,367.849060 114.947281,377.140717 
	C114.756699,422.115173 114.888031,467.091003 114.952629,512.533203 
	C114.555557,513.000000 114.111107,513.000000 113.604012,512.686157 
	C106.361679,497.255890 99.260223,482.101715 91.984352,467.031738 
	C80.503586,443.252441 69.112747,419.426056 57.301121,395.811066 
	C44.611008,370.439636 37.214840,343.563049 35.209499,315.445831 
	C33.645302,293.514038 35.143536,271.557373 40.482174,250.046738 
	C47.260979,222.733337 58.078491,197.141083 75.110252,174.681381 
	C84.351463,162.495056 94.511086,150.781937 105.604012,140.278595 
	C120.028687,126.620613 135.969482,114.578758 150.926270,101.463326 
	C163.600082,90.349823 176.215866,79.111801 188.123001,67.195129 
	C209.246292,46.054897 229.816910,24.362289 250.581314,2.864642 
	C250.959259,2.473340 250.870819,1.631577 251.000000,1.000000 
	C252.066666,1.000000 253.133347,1.000000 254.600006,1.000000 
z"/>
<path fill="#000000" opacity="1.000000" stroke="none" 
	d="
M250.531342,1.000000 
	C250.870819,1.631577 250.959259,2.473340 250.581314,2.864642 
	C229.816910,24.362289 209.246292,46.054897 188.123001,67.195129 
	C176.215866,79.111801 163.600082,90.349823 150.926270,101.463326 
	C135.969482,114.578758 120.028687,126.620613 105.604012,140.278595 
	C94.511086,150.781937 84.351463,162.495056 75.110252,174.681381 
	C58.078491,197.141083 47.260979,222.733337 40.482174,250.046738 
	C35.143536,271.557373 33.645302,293.514038 35.209499,315.445831 
	C37.214840,343.563049 44.611008,370.439636 57.301121,395.811066 
	C69.112747,419.426056 80.503586,443.252441 91.984352,467.031738 
	C99.260223,482.101715 106.361679,497.255890 113.270676,512.686157 
	C75.685364,513.000000 38.370720,513.000000 1.028041,513.000000 
	C1.028041,342.437500 1.028041,171.874969 1.028041,1.000000 
	C84.020630,1.000000 167.041656,1.000000 250.531342,1.000000 
z"/>
<path fill="#00CC76" opacity="1.000000" stroke="none" 
	d="
M461.868652,112.512833 
	C463.619110,119.516632 465.486938,126.830658 466.955505,134.223984 
	C469.691803,147.999603 472.437286,161.781723 474.711395,175.637878 
	C476.226471,184.869339 477.465363,194.209915 477.881989,203.543884 
	C478.629944,220.300766 479.184082,237.099274 478.865021,253.862228 
	C478.490021,273.566345 475.734802,293.038330 471.427765,312.333740 
	C466.342773,335.114410 458.873840,356.973755 448.040344,377.625458 
	C439.890869,393.160583 430.092560,407.569061 418.663818,420.980194 
	C395.606415,448.037048 367.419647,468.105011 335.358154,482.792297 
	C312.594849,493.220154 288.789124,500.824524 264.027527,504.939819 
	C249.650848,507.329193 235.156830,509.010681 220.723389,511.065338 
	C220.004761,511.167603 219.360397,511.791656 218.840729,512.586365 
	C184.979111,513.000000 150.958206,513.000000 116.468658,513.000000 
	C117.071060,512.021729 118.039856,510.892700 119.227959,510.087036 
	C167.891800,477.087646 213.049805,439.783478 255.555008,399.211334 
	C311.088593,346.203339 360.756073,288.285278 402.508118,223.739258 
	C425.350677,188.426056 445.199829,151.508850 461.868652,112.512833 
z"/>
</svg>